# 3ds Max Wavefront OBJ Exporter v0.97b - (c)2007 guruware
# File Created: 30.04.2022 22:58:17

mtllib bourak_Rueda_M.mtl

#
# object wheel_04
#

v  0.0850 -0.0134 -0.2289
v  0.0850 0.2289 -0.0135
v  0.0850 0.2167 0.0751
v  0.0850 -0.1000 -0.2064
v  0.0850 0.2064 -0.1000
v  0.0850 0.0752 -0.2167
v  0.0850 0.1524 -0.1714
v  0.0850 0.1001 0.2063
v  0.0850 -0.2166 -0.0752
v  0.0850 -0.1713 -0.1524
v  0.0850 0.1714 0.1523
v  0.0850 0.0135 0.2289
v  0.0850 -0.2289 0.0134
v  0.0850 -0.2063 0.1000
v  0.0850 -0.0751 0.2166
v  0.0850 -0.1523 0.1713
v  -0.0686 0.0752 -0.2167
v  -0.0686 0.1524 -0.1714
v  -0.0686 0.2064 -0.1000
v  -0.0686 0.2289 -0.0135
v  -0.0686 0.2167 0.0751
v  -0.0686 0.1714 0.1523
v  -0.0686 0.1001 0.2063
v  -0.0686 0.0135 0.2289
v  -0.0686 -0.0751 0.2166
v  -0.0686 -0.1523 0.1713
v  -0.0686 -0.2063 0.1000
v  -0.0686 -0.2289 0.0134
v  -0.0686 -0.2166 -0.0752
v  -0.0686 -0.1713 -0.1524
v  -0.0686 -0.1000 -0.2064
v  -0.0686 -0.0134 -0.2289
v  -0.0252 0.1028 0.0142
v  -0.0252 0.0143 -0.1028
v  -0.0252 -0.0625 -0.0827
v  -0.0252 0.0626 0.0827
v  -0.0252 -0.1027 -0.0143
v  -0.0252 -0.0827 0.0625
v  -0.0252 -0.0142 0.1027
v  -0.0252 0.0827 -0.0626
v  -0.0850 0.0659 -0.1898
v  -0.0850 0.1335 -0.1502
v  -0.0850 0.1808 -0.0877
v  -0.0850 0.2006 -0.0118
v  -0.0850 0.1898 0.0658
v  -0.0850 0.1502 0.1334
v  -0.0850 0.0877 0.1807
v  -0.0850 0.0118 0.2005
v  -0.0850 -0.0658 0.1897
v  -0.0850 -0.1334 0.1501
v  -0.0850 -0.1807 0.0876
v  -0.0850 -0.2005 0.0117
v  -0.0850 -0.1897 -0.0659
v  -0.0850 -0.1501 -0.1335
v  -0.0850 -0.0876 -0.1808
v  -0.0850 -0.0117 -0.2006
v  -0.0711 0.0454 -0.1309
v  -0.0711 0.0921 -0.1036
v  -0.0711 0.1247 -0.0605
v  -0.0711 0.1383 -0.0082
v  -0.0711 0.1309 0.0454
v  -0.0711 0.1036 0.0920
v  -0.0711 0.0605 0.1246
v  -0.0711 0.0082 0.1383
v  -0.0711 -0.0454 0.1308
v  -0.0711 -0.0920 0.1035
v  -0.0711 -0.1246 0.0604
v  -0.0711 -0.1382 0.0081
v  -0.0711 -0.1308 -0.0454
v  -0.0711 -0.1035 -0.0921
v  -0.0711 -0.0604 -0.1247
v  -0.0711 -0.0081 -0.1383
# 72 vertices

vn 0.6657 -0.0438 -0.7449
vn 0.6657 0.7449 -0.0438
vn 0.6657 0.7050 0.2446
vn 0.6657 -0.3255 -0.6715
vn 0.6657 0.6715 -0.3255
vn 0.6657 0.2446 -0.7050
vn 0.6657 0.4958 -0.5577
vn 0.6657 0.3255 0.6715
vn 0.6657 -0.7050 -0.2446
vn 0.6657 -0.5577 -0.4958
vn 0.6657 0.5577 0.4958
vn 0.6657 0.0438 0.7449
vn 0.6657 -0.7449 0.0438
vn 0.6657 -0.6715 0.3255
vn 0.6657 -0.2446 0.7050
vn 0.6657 -0.4958 0.5577
vn -0.4746 0.2886 -0.8316
vn -0.4746 0.5848 -0.6578
vn -0.4746 0.7920 -0.3839
vn -0.4746 0.8787 -0.0516
vn -0.4746 0.8316 0.2886
vn -0.4746 0.6578 0.5848
vn -0.4746 0.3839 0.7920
vn -0.4746 0.0516 0.8787
vn -0.4746 -0.2886 0.8316
vn -0.4746 -0.5848 0.6578
vn -0.4746 -0.7920 0.3839
vn -0.4746 -0.8787 0.0516
vn -0.4746 -0.8316 -0.2886
vn -0.4746 -0.6578 -0.5848
vn -0.4746 -0.3839 -0.7920
vn -0.4746 -0.0516 -0.8787
vn -0.8704 -0.4878 -0.0676
vn -0.8704 -0.0676 0.4878
vn -0.8704 0.2971 0.3927
vn -0.8704 -0.2971 -0.3927
vn -0.8704 0.4878 0.0676
vn -0.8704 0.3927 -0.2971
vn -0.8704 0.0676 -0.4878
vn -0.8704 -0.3927 0.2971
vn -0.9807 0.0641 -0.1846
vn -0.9807 0.1298 -0.1460
vn -0.9807 0.1758 -0.0852
vn -0.9807 0.1951 -0.0115
vn -0.9807 0.1846 0.0641
vn -0.9807 0.1460 0.1298
vn -0.9807 0.0852 0.1758
vn -0.9807 0.0115 0.1951
vn -0.9807 -0.0641 0.1846
vn -0.9807 -0.1298 0.1460
vn -0.9807 -0.1758 0.0852
vn -0.9807 -0.1951 0.0115
vn -0.9807 -0.1846 -0.0641
vn -0.9807 -0.1460 -0.1298
vn -0.9807 -0.0852 -0.1758
vn -0.9807 -0.0115 -0.1951
vn -0.8693 -0.1748 0.4624
vn -0.8693 -0.3182 0.3783
vn -0.8693 -0.4506 0.2033
vn -0.8693 -0.4925 0.0425
vn -0.8693 -0.4624 -0.1748
vn -0.8693 -0.3783 -0.3182
vn -0.8693 -0.2033 -0.4506
vn -0.8693 -0.0425 -0.4925
vn -0.8693 0.1748 -0.4624
vn -0.8693 0.3182 -0.3783
vn -0.8693 0.4506 -0.2033
vn -0.8693 0.4925 -0.0425
vn -0.8693 0.4624 0.1748
vn -0.8693 0.3783 0.3182
vn -0.8693 0.2033 0.4506
vn -0.8693 0.0425 0.4925
# 72 vertex normals

vt 0.7918 0.0373 0.9995
vt 0.7866 0.2082 0.9995
vt 0.8250 0.2356 0.9995
vt 0.8318 0.0122 0.9995
vt 0.7616 0.1682 0.9995
vt 0.7644 0.0757 0.9995
vt 0.7538 0.1217 0.9995
vt 0.9176 0.2384 0.9995
vt 0.9243 0.0150 0.9995
vt 0.8783 0.0044 0.9995
vt 0.8710 0.2462 0.9995
vt 0.9576 0.2134 0.9995
vt 0.9627 0.0424 0.9995
vt 0.9878 0.0824 0.9995
vt 0.9850 0.1750 0.9995
vt 0.9956 0.1290 0.9995
vt 0.9990 0.3306 0.9995
vt 0.9990 0.2562 0.9995
vt 0.9218 0.2562 0.9995
vt 0.9218 0.3306 0.9995
vt 0.8429 0.2562 0.9995
vt 0.8429 0.3306 0.9995
vt 0.8429 0.1699 0.3525
vt 0.8301 0.0936 0.3525
vt 0.8656 0.0714 0.3525
vt 0.8837 0.1793 0.3525
vt 0.9064 0.0808 0.3525
vt 0.9286 0.1163 0.3525
vt 0.9192 0.1571 0.3525
vt 0.8207 0.1344 0.3525
vt 0.7781 0.0818 0.0005
vt 0.7688 0.1221 0.0005
vt 0.7538 0.1217 0.0971
vt 0.7644 0.0757 0.0971
vt 0.7756 0.1629 0.0005
vt 0.7616 0.1682 0.0971
vt 0.7975 0.1979 0.0005
vt 0.7866 0.2082 0.0971
vt 0.8312 0.2219 0.0005
vt 0.8250 0.2356 0.0971
vt 0.8715 0.2312 0.0005
vt 0.8710 0.2462 0.0971
vt 0.9122 0.2244 0.0005
vt 0.9176 0.2384 0.0971
vt 0.9473 0.2025 0.0005
vt 0.9576 0.2134 0.0971
vt 0.9713 0.1688 0.0005
vt 0.9850 0.1750 0.0971
vt 0.9806 0.1285 0.0005
vt 0.9956 0.1290 0.0971
vt 0.9737 0.0877 0.0005
vt 0.9878 0.0824 0.0971
vt 0.9518 0.0527 0.0005
vt 0.9627 0.0424 0.0971
vt 0.9182 0.0287 0.0005
vt 0.9243 0.0150 0.0971
vt 0.8779 0.0194 0.0005
vt 0.8783 0.0044 0.0971
vt 0.8371 0.0263 0.0005
vt 0.8318 0.0122 0.0971
vt 0.8021 0.0482 0.0005
vt 0.7918 0.0373 0.0971
vt 0.8081 0.0953 0.0823
vt 0.8016 0.1231 0.0823
vt 0.8064 0.1512 0.0823
vt 0.8215 0.1754 0.0823
vt 0.8447 0.1919 0.0823
vt 0.8725 0.1983 0.0823
vt 0.9006 0.1936 0.0823
vt 0.9248 0.1785 0.0823
vt 0.9413 0.1553 0.0823
vt 0.9477 0.1275 0.0823
vt 0.9430 0.0994 0.0823
vt 0.9279 0.0752 0.0823
vt 0.9047 0.0587 0.0823
vt 0.8769 0.0523 0.0823
vt 0.8488 0.0570 0.0823
vt 0.8246 0.0721 0.0823
# 78 texture coords

o wheel_04
g wheel_04
usemtl 1___Default
s 1
f 1/1/1 2/2/2 3/3/3 
f 3/3/3 4/4/4 1/1/1 
f 5/5/5 2/2/2 1/1/1 
f 1/1/1 6/6/6 5/5/5 
f 6/6/6 7/7/7 5/5/5 
f 8/8/8 9/9/9 10/10/10 
f 10/10/10 11/11/11 8/8/8 
f 12/12/12 13/13/13 9/9/9 
f 9/9/9 8/8/8 12/12/12 
f 14/14/14 13/13/13 12/12/12 
f 12/12/12 15/15/15 14/14/14 
f 15/15/15 16/16/16 14/14/14 
f 11/11/11 10/10/10 4/4/4 
f 4/4/4 3/3/3 11/11/11 
s 6
f 6/17/6 17/18/17 18/19/18 
f 18/19/18 7/20/7 6/17/6 
f 7/20/7 18/19/18 19/21/19 
f 19/21/19 5/22/5 7/20/7 
f 5/22/5 19/21/19 20/19/20 
f 20/19/20 2/20/2 5/22/5 
f 2/20/2 20/19/20 21/18/21 
f 21/18/21 3/17/3 2/20/2 
f 3/17/3 21/18/21 22/19/22 
f 22/19/22 11/20/11 3/17/3 
f 11/20/11 22/19/22 23/21/23 
f 23/21/23 8/22/8 11/20/11 
f 8/22/8 23/21/23 24/19/24 
f 24/19/24 12/20/12 8/22/8 
f 12/20/12 24/19/24 25/18/25 
f 25/18/25 15/17/15 12/20/12 
f 15/17/15 25/18/25 26/19/26 
f 26/19/26 16/20/16 15/17/15 
f 16/20/16 26/19/26 27/21/27 
f 27/21/27 14/22/14 16/20/16 
f 14/22/14 27/21/27 28/19/28 
f 28/19/28 13/20/13 14/22/14 
f 13/20/13 28/19/28 29/18/29 
f 29/18/29 9/17/9 13/20/13 
f 9/17/9 29/18/29 30/19/30 
f 30/19/30 10/20/10 9/17/9 
f 10/20/10 30/19/30 31/21/31 
f 31/21/31 4/22/4 10/20/10 
f 4/22/4 31/21/31 32/19/32 
f 32/19/32 1/20/1 4/22/4 
f 1/20/1 32/19/32 17/18/17 
f 17/18/17 6/17/6 1/20/1 
s 1
f 33/23/33 34/24/34 35/25/35 
f 35/25/35 36/26/36 33/23/33 
f 37/27/37 38/28/38 39/29/39 
f 37/27/37 39/29/39 36/26/36 
f 36/26/36 35/25/35 37/27/37 
f 33/23/33 40/30/40 34/24/34 
s 4
f 41/31/41 42/32/42 18/33/18 
f 18/33/18 17/34/17 41/31/41 
f 42/32/42 43/35/43 19/36/19 
f 19/36/19 18/33/18 42/32/42 
f 43/35/43 44/37/44 20/38/20 
f 20/38/20 19/36/19 43/35/43 
f 44/37/44 45/39/45 21/40/21 
f 21/40/21 20/38/20 44/37/44 
f 45/39/45 46/41/46 22/42/22 
f 22/42/22 21/40/21 45/39/45 
f 46/41/46 47/43/47 23/44/23 
f 23/44/23 22/42/22 46/41/46 
f 47/43/47 48/45/48 24/46/24 
f 24/46/24 23/44/23 47/43/47 
f 48/45/48 49/47/49 25/48/25 
f 25/48/25 24/46/24 48/45/48 
f 49/47/49 50/49/50 26/50/26 
f 26/50/26 25/48/25 49/47/49 
f 50/49/50 51/51/51 27/52/27 
f 27/52/27 26/50/26 50/49/50 
f 51/51/51 52/53/52 28/54/28 
f 28/54/28 27/52/27 51/51/51 
f 52/53/52 53/55/53 29/56/29 
f 29/56/29 28/54/28 52/53/52 
f 53/55/53 54/57/54 30/58/30 
f 30/58/30 29/56/29 53/55/53 
f 54/57/54 55/59/55 31/60/31 
f 31/60/31 30/58/30 54/57/54 
f 55/59/55 56/61/56 32/62/32 
f 32/62/32 31/60/31 55/59/55 
f 56/61/56 41/31/41 17/34/17 
f 17/34/17 32/62/32 56/61/56 
f 57/63/57 58/64/58 42/32/42 
f 42/32/42 41/31/41 57/63/57 
f 58/64/58 59/65/59 43/35/43 
f 43/35/43 42/32/42 58/64/58 
f 59/65/59 60/66/60 44/37/44 
f 44/37/44 43/35/43 59/65/59 
f 60/66/60 61/67/61 45/39/45 
f 45/39/45 44/37/44 60/66/60 
f 61/67/61 62/68/62 46/41/46 
f 46/41/46 45/39/45 61/67/61 
f 62/68/62 63/69/63 47/43/47 
f 47/43/47 46/41/46 62/68/62 
f 63/69/63 64/70/64 48/45/48 
f 48/45/48 47/43/47 63/69/63 
f 64/70/64 65/71/65 49/47/49 
f 49/47/49 48/45/48 64/70/64 
f 65/71/65 66/72/66 50/49/50 
f 50/49/50 49/47/49 65/71/65 
f 66/72/66 67/73/67 51/51/51 
f 51/51/51 50/49/50 66/72/66 
f 67/73/67 68/74/68 52/53/52 
f 52/53/52 51/51/51 67/73/67 
f 68/74/68 69/75/69 53/55/53 
f 53/55/53 52/53/52 68/74/68 
f 69/75/69 70/76/70 54/57/54 
f 54/57/54 53/55/53 69/75/69 
f 70/76/70 71/77/71 55/59/55 
f 55/59/55 54/57/54 70/76/70 
f 71/77/71 72/78/72 56/61/56 
f 56/61/56 55/59/55 71/77/71 
f 72/78/72 57/63/57 41/31/41 
f 41/31/41 56/61/56 72/78/72 
s 1
f 34/24/34 40/30/40 58/64/58 
f 58/64/58 57/63/57 34/24/34 
f 59/65/59 58/64/58 40/30/40 
f 40/30/40 33/23/33 60/66/60 
f 60/66/60 59/65/59 40/30/40 
f 61/67/61 60/66/60 33/23/33 
f 33/23/33 36/26/36 62/68/62 
f 62/68/62 61/67/61 33/23/33 
f 63/69/63 62/68/62 36/26/36 
f 36/26/36 39/29/39 64/70/64 
f 64/70/64 63/69/63 36/26/36 
f 65/71/65 64/70/64 39/29/39 
f 39/29/39 38/28/38 66/72/66 
f 66/72/66 65/71/65 39/29/39 
f 67/73/67 66/72/66 38/28/38 
f 38/28/38 37/27/37 68/74/68 
f 68/74/68 67/73/67 38/28/38 
f 69/75/69 68/74/68 37/27/37 
f 37/27/37 35/25/35 70/76/70 
f 70/76/70 69/75/69 37/27/37 
f 71/77/71 70/76/70 35/25/35 
f 35/25/35 34/24/34 72/78/72 
f 72/78/72 71/77/71 35/25/35 
f 57/63/57 72/78/72 34/24/34 
# 140 faces

