# 3ds Max Wavefront OBJ Exporter v0.97b - (c)2007 guruware
# File Created: 02.04.2022 22:38:55

mtllib dado_Ocho_M.mtl

#
# object Pyramid001
#

v  0.0000 9.8425 -0.0000
v  -9.8425 0.0000 9.8425
v  9.8425 0.0000 9.8425
v  9.8425 0.0000 -9.8425
v  -9.8425 0.0000 -9.8425
v  0.0000 0.0000 -0.0000
# 6 vertices

vn 0.0000 1.0000 -0.0000
vn -0.6891 -0.2242 0.6891
vn 0.6891 -0.2242 0.6891
vn 0.6891 -0.2242 -0.6891
vn -0.6891 -0.2242 -0.6891
vn 0.0000 -1.0000 -0.0000
# 6 vertex normals

vt 0.3226 0.3891 0.0000
vt 0.5743 0.3398 0.0000
vt 0.4448 0.6445 0.0000
vt 0.2913 0.3484 0.0000
vt 0.4186 0.6556 0.0000
vt 0.1596 0.6468 0.0000
vt 0.2555 0.3820 0.0000
vt 0.1587 0.6195 0.0000
vt 0.0158 0.3652 0.0000
vt 0.3399 0.3045 0.0000
vt 0.4131 0.0742 0.0000
vt 0.5407 0.3340 0.0000
vt 1.1154 0.9866 0.0000
vt 2.2490 0.5151 0.0000
vt 1.6336 1.0285 0.0000
vt 1.6336 0.0285 0.0000
vt 1.1154 -0.0134 0.0000
# 17 texture coords

o Pyramid001
g Pyramid001
usemtl 01___Default
s 4
f 1/1/1 2/2/2 3/3/3 
s 2
f 1/4/1 3/5/3 4/6/4 
s 16
f 1/7/1 4/8/4 5/9/5 
s 32
f 1/10/1 5/11/5 2/12/2 
s 8
f 2/13/2 6/14/6 3/15/3 
f 3/15/3 6/14/6 4/16/4 
f 4/16/4 6/14/6 5/17/5 
f 5/17/5 6/14/6 2/13/2 
# 0 polygons - 8 triangles

#
# object Pyramid002
#

v  -0.0000 -9.8425 0.0000
v  9.8425 -0.0000 9.8425
v  -9.8425 0.0000 9.8425
v  -9.8425 0.0000 -9.8425
v  9.8425 -0.0000 -9.8425
v  0.0000 0.0000 -0.0000
# 6 vertices

vn -0.0000 -1.0000 0.0000
vn 0.6891 0.2242 0.6891
vn -0.6891 0.2242 0.6891
vn -0.6891 0.2242 -0.6891
vn 0.6891 0.2242 -0.6891
vn 0.0000 1.0000 -0.0000
# 6 vertex normals

vt 0.6792 0.6244 0.0000
vt 0.4669 0.6636 0.0000
vt 0.5925 0.3856 0.0000
vt 0.7161 0.6575 0.0000
vt 0.5890 0.3479 0.0000
vt 0.8361 0.3388 0.0000
vt 0.7508 0.6494 0.0000
vt 0.8400 0.3910 0.0000
vt 0.9720 0.6702 0.0000
vt 0.6671 0.6967 0.0000
vt 0.5849 0.9607 0.0000
vt 0.4536 0.6718 0.0000
vt 1.0828 0.7863 0.0000
vt 1.8677 0.5101 0.0000
vt 1.1324 1.0713 0.0000
vt 1.1324 0.3762 0.0000
vt 1.0828 -0.2137 0.0000
# 17 texture coords

o Pyramid002
g Pyramid002
usemtl 01___Default
s 4
f 7/18/7 8/19/8 9/20/9 
s 2
f 7/21/7 9/22/9 10/23/10 
s 16
f 7/24/7 10/25/10 11/26/11 
s 32
f 7/27/7 11/28/11 8/29/8 
s 8
f 8/30/8 12/31/12 9/32/9 
f 9/32/9 12/31/12 10/33/10 
f 10/33/10 12/31/12 11/34/11 
f 11/34/11 12/31/12 8/30/8 
# 0 polygons - 8 triangles

