# 3ds Max Wavefront OBJ Exporter v0.97b - (c)2007 guruware
# File Created: 01.05.2022 12:49:46

mtllib helitrase.mtl

#
# object rear_rotor
#

v  -0.2094 -0.0366 -0.0310
v  -0.2052 -0.0113 -0.0655
v  0.1603 -0.0113 -0.0206
v  0.1561 -0.0366 0.0139
v  -0.2068 0.0295 -0.0523
v  0.1587 0.0295 -0.0074
v  -0.2120 0.0295 -0.0097
v  0.1535 0.0295 0.0353
v  -0.2136 -0.0113 0.0035
v  0.1519 -0.0113 0.0484
v  0.1350 -0.1896 -0.2172
v  0.1518 -0.2038 -0.2033
v  0.0950 0.1800 0.2590
v  0.0782 0.1942 0.2451
v  0.1715 -0.1896 -0.2127
v  0.1147 0.1942 0.2496
v  0.1547 -0.1753 -0.2266
v  0.0979 0.2084 0.2358
v  0.0224 0.1897 -0.1782
v  0.0257 0.2164 -0.2046
v  0.1791 0.2164 -0.1858
v  0.1758 0.1897 -0.1594
v  0.0224 0.2430 -0.1782
v  0.1758 0.2430 -0.1594
v  0.0192 0.2164 -0.1518
v  0.1726 0.2164 -0.1329
v  -0.0200 -0.2455 0.1668
v  -0.0167 -0.2189 0.1404
v  0.1367 -0.2189 0.1592
v  0.1334 -0.2455 0.1857
v  -0.0200 -0.1923 0.1668
v  0.1334 -0.1923 0.1857
v  -0.0232 -0.2189 0.1932
v  0.1302 -0.2189 0.2121
v  0.0275 -0.2022 -0.2195
v  0.0308 -0.1756 -0.2459
v  0.1841 -0.1756 -0.2271
v  0.1809 -0.2022 -0.2006
v  0.0275 -0.1490 -0.2195
v  0.1809 -0.1490 -0.2006
v  0.0243 -0.1756 -0.1930
v  0.1777 -0.1756 -0.1742
v  -0.0252 0.1500 0.2092
v  -0.0219 0.1766 0.1828
v  0.1315 0.1766 0.2016
v  0.1282 0.1500 0.2281
v  -0.0252 0.2032 0.2092
v  0.1282 0.2032 0.2281
v  -0.0284 0.1766 0.2357
v  0.1250 0.1766 0.2545
v  0.0842 -0.2361 0.1963
v  0.1007 -0.2245 0.2128
v  0.1470 0.2444 -0.1643
v  0.1305 0.2328 -0.1807
v  0.1207 -0.2361 0.2008
v  0.1671 0.2328 -0.1762
v  0.1042 -0.2477 0.1843
v  0.1505 0.2212 -0.1927
v  0.0811 0.2427 -0.0829
v  0.0601 0.2427 0.0885
v  0.0601 -0.2453 0.0885
v  0.0811 -0.2453 -0.0829
v  0.0228 0.2427 -0.0901
v  0.0228 -0.2453 -0.0901
v  0.0017 -0.2453 0.0813
v  0.0017 0.2427 0.0813
v  0.1004 -0.0876 -0.2395
v  0.1004 0.0850 -0.2395
v  0.0408 0.0850 0.2450
v  0.0408 -0.0876 0.2450
v  0.0420 -0.0876 -0.2466
v  -0.0175 -0.0876 0.2379
v  -0.0175 0.0850 0.2379
v  0.0420 0.0850 -0.2466
v  0.0789 0.2793 -0.0650
v  0.0623 0.2793 0.0705
v  0.0623 -0.2818 0.0705
v  0.0789 -0.2818 -0.0650
v  0.0206 0.2793 -0.0721
v  0.0206 -0.2818 -0.0721
v  0.0039 -0.2818 0.0633
v  0.0039 0.2793 0.0633
v  0.1039 -0.0643 -0.2685
v  0.1039 0.0669 -0.2685
v  0.0373 0.0669 0.2741
v  0.0373 -0.0643 0.2741
v  0.0456 -0.0643 -0.2757
v  -0.0211 -0.0643 0.2669
v  -0.0211 0.0669 0.2669
v  0.0456 0.0669 -0.2757
v  0.0126 0.4629 0.0564
v  0.0090 0.2569 0.0560
v  0.0584 0.2569 0.0621
v  0.0551 0.4629 0.0617
v  0.0086 0.7085 0.1251
v  0.0429 0.7085 0.1294
v  0.0200 1.3552 0.1265
v  0.0327 1.3552 0.1281
v  0.0429 1.3552 -0.0600
v  0.0556 1.3552 -0.0584
v  0.0234 0.2497 -0.0624
v  0.0730 0.2497 -0.0563
v  -0.0111 0.1681 0.2462
v  -0.0061 0.1398 0.2053
v  0.0222 0.4771 -0.0249
v  0.0172 0.5054 0.0160
v  -0.0419 0.1681 0.2424
v  -0.0137 0.5054 0.0122
v  -0.0086 0.4771 -0.0287
v  -0.0369 0.1398 0.2015
v  0.0808 0.3510 0.0052
v  0.0808 0.3252 0.0052
v  0.0966 0.3252 -0.1232
v  0.0966 0.3510 -0.1232
v  0.0500 0.3510 0.0014
v  0.0658 0.3510 -0.1270
v  0.0658 0.3252 -0.1270
v  0.0500 0.3252 0.0014
v  -0.0366 -0.0596 0.4569
v  -0.0151 -0.0596 0.2520
v  0.0343 -0.0596 0.2580
v  0.0059 -0.0596 0.4621
v  -0.0622 -0.1282 0.7014
v  -0.0279 -0.1282 0.7056
v  -0.1297 -0.1282 1.3449
v  -0.1170 -0.1282 1.3465
v  -0.1297 0.0596 1.3449
v  -0.1170 0.0596 1.3465
v  -0.0144 0.0596 0.2448
v  0.0353 0.0596 0.2509
v  -0.0010 -0.2508 0.1641
v  0.0024 -0.2096 0.1360
v  -0.0387 0.0223 0.4710
v  -0.0422 -0.0189 0.4991
v  -0.0319 -0.2508 0.1604
v  -0.0730 -0.0189 0.4953
v  -0.0696 0.0223 0.4672
v  -0.0284 -0.2096 0.1322
v  0.0380 -0.0004 0.3534
v  0.0412 -0.0004 0.3277
v  0.0412 0.1289 0.3277
v  0.0380 0.1289 0.3534
v  0.0072 -0.0004 0.3496
v  0.0072 0.1289 0.3496
v  0.0104 0.1289 0.3239
v  0.0104 -0.0004 0.3239
v  0.0271 -0.4629 -0.0619
v  0.0235 -0.2569 -0.0623
v  0.0729 -0.2569 -0.0563
v  0.0697 -0.4629 -0.0567
v  0.0399 -0.7085 -0.1295
v  0.0742 -0.7085 -0.1253
v  0.0513 -1.3552 -0.1281
v  0.0640 -1.3552 -0.1266
v  0.0284 -1.3552 0.0584
v  0.0410 -1.3552 0.0600
v  0.0088 -0.2497 0.0560
v  0.0585 -0.2497 0.0621
v  0.0501 -0.1681 -0.2518
v  0.0450 -0.1398 -0.2109
v  0.0168 -0.4771 0.0193
v  0.0218 -0.5054 -0.0216
v  0.0193 -0.1681 -0.2556
v  -0.0090 -0.5054 -0.0253
v  -0.0141 -0.4771 0.0156
v  0.0142 -0.1398 -0.2146
v  0.0809 -0.3510 0.0043
v  0.0809 -0.3252 0.0043
v  0.0651 -0.3252 0.1327
v  0.0651 -0.3510 0.1327
v  0.0501 -0.3510 0.0005
v  0.0343 -0.3510 0.1290
v  0.0343 -0.3252 0.1290
v  0.0501 -0.3252 0.0005
v  0.0763 0.0596 -0.4623
v  0.0476 0.0596 -0.2583
v  0.0970 0.0596 -0.2522
v  0.1189 0.0596 -0.4571
v  0.1107 0.1282 -0.7057
v  0.1450 0.1282 -0.7015
v  0.2010 0.1282 -1.3465
v  0.2136 0.1282 -1.3449
v  0.2010 -0.0596 -1.3465
v  0.2136 -0.0596 -1.3449
v  0.0466 -0.0596 -0.2511
v  0.0962 -0.0596 -0.2450
v  0.0400 0.2508 -0.1697
v  0.0365 0.2096 -0.1416
v  0.0777 -0.0223 -0.4765
v  0.0811 0.0189 -0.5046
v  0.0092 0.2508 -0.1735
v  0.0503 0.0189 -0.5084
v  0.0469 -0.0223 -0.4803
v  0.0057 0.2096 -0.1453
v  0.1237 0.0004 -0.3438
v  0.1205 0.0004 -0.3181
v  0.1205 -0.1289 -0.3181
v  0.1237 -0.1289 -0.3438
v  0.0929 0.0004 -0.3476
v  0.0929 -0.1289 -0.3476
v  0.0897 -0.1289 -0.3219
v  0.0897 0.0004 -0.3219
# 202 vertices

vn 0.0287 -0.9719 -0.2338
vn 0.1216 -0.0765 -0.9896
vn 0.1039 -0.5240 -0.8454
vn -0.0287 -0.9719 0.2338
vn 0.0465 0.9246 -0.3782
vn 0.0929 0.6477 -0.7562
vn -0.0929 0.6477 0.7562
vn -0.0465 0.9246 0.3782
vn -0.1039 -0.5240 0.8454
vn -0.1216 -0.0765 0.9896
vn -0.9925 0.0000 -0.1219
vn 0.9925 0.0000 0.1219
vn -0.9662 -0.2438 0.0839
vn 0.2403 -0.7319 0.6377
vn -0.3877 -0.7318 0.5605
vn -0.9171 0.2438 -0.3153
vn 0.9661 0.2439 -0.0840
vn 0.9171 -0.2439 0.3154
vn -0.2405 0.7318 -0.6376
vn 0.3875 0.7319 -0.5605
vn 0.0941 -0.6359 -0.7660
vn 0.0941 -0.6358 -0.7661
vn 0.0941 -0.6361 -0.7659
vn -0.0941 0.6359 0.7660
vn -0.0939 0.6359 0.7660
vn -0.0943 0.6359 0.7660
vn 0.0386 -0.9486 -0.3140
vn 0.1157 0.3161 -0.9416
vn 0.1157 -0.3161 -0.9416
vn -0.0386 -0.9486 0.3140
vn -0.0386 0.9486 0.3140
vn 0.0386 0.9486 -0.3140
vn -0.1157 -0.3161 0.9416
vn -0.1157 0.3161 0.9416
vn -0.0386 -0.9487 0.3139
vn -0.0386 0.9487 0.3139
vn -0.1157 -0.3162 0.9416
vn -0.1157 0.3162 0.9416
vn -0.9716 0.1988 0.1281
vn 0.2239 0.5969 0.7705
vn -0.4040 0.5968 0.6932
vn -0.9117 -0.1989 -0.3596
vn 0.9716 -0.1990 -0.1283
vn 0.9117 0.1989 0.3596
vn -0.2241 -0.5968 -0.7704
vn 0.4037 -0.5969 -0.6934
vn -0.0768 -0.7771 0.6247
vn -0.0767 -0.7772 0.6246
vn -0.0768 -0.7770 0.6249
vn 0.0768 0.7770 -0.6249
vn 0.1219 0.0000 -0.9925
vn 0.0000 -1.0000 -0.0000
vn -0.1219 0.0000 0.9925
vn 0.0000 1.0000 -0.0000
vn -0.1174 -0.2690 0.9560
vn -0.0074 -0.9982 0.0601
vn 0.9924 0.0159 0.1220
vn 0.9924 0.0159 0.1219
vn 0.9924 0.0159 0.1221
vn -0.9924 0.0178 -0.1220
vn -0.9924 0.0178 -0.1219
vn 0.1005 -0.5662 -0.8181
vn -0.0691 -0.8240 0.5624
vn -0.1005 0.5662 0.8181
vn 0.0691 0.8240 -0.5623
vn 0.0328 -0.9631 -0.2672
vn 0.1217 -0.0605 -0.9907
vn 0.9905 -0.0000 0.1377
vn 0.9905 0.0000 0.1377
vn 0.9905 -0.0001 0.1377
vn -0.9945 0.0000 -0.1043
vn -0.9945 -0.0000 -0.1043
vn -0.9945 0.0001 -0.1043
vn -0.9945 -0.0000 -0.1042
vn -0.1005 0.5663 0.8181
vn 0.1174 0.2690 -0.9560
vn 0.0074 0.9982 -0.0601
vn 0.9924 -0.0159 0.1219
vn 0.9924 -0.0159 0.1220
vn 0.9924 -0.0159 0.1218
vn -0.9924 -0.0178 -0.1219
vn -0.9924 -0.0178 -0.1218
vn -0.9924 -0.0178 -0.1220
vn -0.0328 0.9631 0.2672
vn -0.1217 0.0605 0.9907
vn 0.9944 0.0000 0.1062
vn 0.9944 -0.0000 0.1062
vn 0.9944 0.0001 0.1061
vn -0.9902 -0.0000 -0.1396
vn -0.9902 0.0000 -0.1396
vn -0.9902 -0.0001 -0.1396
vn 0.0691 0.8240 -0.5624
# 92 vertex normals

vt 0.3167 0.2815 0.0000
vt 0.3149 0.2813 0.0000
vt 0.3141 0.2829 0.0000
vt 0.3154 0.2841 0.0000
vt 0.3170 0.2833 0.0000
vt 0.3142 0.2705 0.0000
vt 0.3150 0.2704 0.0000
vt 0.3180 0.2952 0.0000
vt 0.3173 0.2953 0.0000
vt 0.3135 0.2706 0.0000
vt 0.3165 0.2954 0.0000
vt 0.3050 0.2834 0.0000
vt 0.3034 0.2834 0.0000
vt 0.3034 0.2850 0.0000
vt 0.3050 0.2849 0.0000
vt 0.3278 0.2802 0.0000
vt 0.3263 0.2802 0.0000
vt 0.3263 0.2818 0.0000
vt 0.3279 0.2818 0.0000
vt 0.3149 0.2704 0.0000
vt 0.3133 0.2704 0.0000
vt 0.3134 0.2720 0.0000
vt 0.3149 0.2720 0.0000
vt 0.3178 0.2933 0.0000
vt 0.3163 0.2933 0.0000
vt 0.3163 0.2949 0.0000
vt 0.3179 0.2948 0.0000
vt 0.3280 0.2810 0.0000
vt 0.3282 0.2817 0.0000
vt 0.3033 0.2842 0.0000
vt 0.3280 0.2802 0.0000
vt 0.3032 0.2835 0.0000
vt 0.3061 0.2874 0.0000
vt 0.3113 0.2924 0.0000
vt 0.3252 0.2777 0.0000
vt 0.3200 0.2728 0.0000
vt 0.3108 0.2730 0.0000
vt 0.3058 0.2782 0.0000
vt 0.3205 0.2921 0.0000
vt 0.3254 0.2869 0.0000
vt 0.3056 0.2891 0.0000
vt 0.3097 0.2930 0.0000
vt 0.3257 0.2761 0.0000
vt 0.3216 0.2722 0.0000
vt 0.3092 0.2729 0.0000
vt 0.3055 0.2768 0.0000
vt 0.3219 0.2924 0.0000
vt 0.3256 0.2885 0.0000
vt 0.3042 0.2982 0.0000
vt 0.3101 0.2921 0.0000
vt 0.2993 0.3076 0.0000
vt 0.8653 0.2391 0.0000
vt 0.7152 0.2391 0.0000
vt 0.8653 0.1955 0.0000
vt 0.6087 0.1955 0.0000
vt 0.3067 0.2884 0.0000
vt 0.6582 0.2231 0.0000
vt 0.6104 0.2231 0.0000
vt 0.3184 0.2948 0.0000
vt 0.3179 0.2928 0.0000
vt 0.3013 0.2963 0.0000
vt 0.3018 0.2984 0.0000
vt 0.3056 0.2932 0.0000
vt 0.3064 0.2924 0.0000
vt 0.3025 0.2887 0.0000
vt 0.3017 0.2895 0.0000
vt 0.3312 0.2940 0.0000
vt 0.3250 0.2882 0.0000
vt 0.3406 0.2990 0.0000
vt 0.8659 0.2391 0.0000
vt 0.7158 0.2391 0.0000
vt 0.8659 0.1955 0.0000
vt 0.6093 0.1955 0.0000
vt 0.3214 0.2916 0.0000
vt 0.6588 0.2232 0.0000
vt 0.6110 0.2232 0.0000
vt 0.3278 0.2799 0.0000
vt 0.3258 0.2803 0.0000
vt 0.3293 0.2969 0.0000
vt 0.3313 0.2965 0.0000
vt 0.3262 0.2926 0.0000
vt 0.3254 0.2919 0.0000
vt 0.3217 0.2958 0.0000
vt 0.3225 0.2965 0.0000
vt 0.3270 0.2670 0.0000
vt 0.3212 0.2732 0.0000
vt 0.3320 0.2577 0.0000
vt 0.8654 0.2391 0.0000
vt 0.7153 0.2391 0.0000
vt 0.8654 0.1955 0.0000
vt 0.6089 0.1955 0.0000
vt 0.3245 0.2768 0.0000
vt 0.6583 0.2231 0.0000
vt 0.6105 0.2231 0.0000
vt 0.3129 0.2704 0.0000
vt 0.3133 0.2725 0.0000
vt 0.3299 0.2689 0.0000
vt 0.3295 0.2669 0.0000
vt 0.3256 0.2721 0.0000
vt 0.3249 0.2729 0.0000
vt 0.3288 0.2765 0.0000
vt 0.3295 0.2758 0.0000
vt 0.3000 0.2712 0.0000
vt 0.3062 0.2771 0.0000
vt 0.2907 0.2663 0.0000
vt 0.8659 0.2390 0.0000
vt 0.7158 0.2390 0.0000
vt 0.8659 0.1954 0.0000
vt 0.6093 0.1954 0.0000
vt 0.3098 0.2737 0.0000
vt 0.6588 0.2231 0.0000
vt 0.6110 0.2231 0.0000
vt 0.3034 0.2854 0.0000
vt 0.3054 0.2849 0.0000
vt 0.3019 0.2684 0.0000
vt 0.2999 0.2688 0.0000
vt 0.3051 0.2726 0.0000
vt 0.3058 0.2734 0.0000
vt 0.3095 0.2695 0.0000
vt 0.3087 0.2688 0.0000
# 120 texture coords

o rear_rotor
g rear_rotor
usemtl Material__29
s 1
f 1/1/1 2/2/2 3/2/3 
f 3/2/3 4/1/4 1/1/1 
f 2/2/2 5/3/5 6/3/6 
f 6/3/6 3/2/3 2/2/2 
f 5/3/5 7/4/7 8/4/8 
f 8/4/8 6/3/6 5/3/5 
f 7/4/7 9/5/9 10/5/10 
f 10/5/10 8/4/8 7/4/7 
f 9/5/9 1/1/1 4/1/4 
f 4/1/4 10/5/10 9/5/9 
f 5/3/11 2/2/11 1/1/11 
f 7/4/11 5/3/11 1/1/11 
f 9/5/11 7/4/11 1/1/11 
f 6/3/12 8/4/12 10/5/12 
f 3/2/12 6/3/12 10/5/12 
f 4/1/12 3/2/12 10/5/12 
f 11/6/13 12/7/14 13/8/15 
f 13/8/15 14/9/16 11/6/13 
f 12/7/14 15/6/17 16/9/18 
f 16/9/18 13/8/15 12/7/14 
f 15/6/17 17/10/19 18/11/20 
f 18/11/20 16/9/18 15/6/17 
f 17/10/19 11/6/13 14/9/16 
f 14/9/16 18/11/20 17/10/19 
f 15/6/21 12/7/22 11/6/21 
f 11/6/21 17/10/23 15/6/21 
f 13/8/24 16/9/25 18/11/24 
f 18/11/24 14/9/26 13/8/24 
f 19/12/27 20/13/28 21/13/29 
f 21/13/29 22/12/30 19/12/27 
f 20/13/28 23/14/31 24/14/32 
f 24/14/32 21/13/29 20/13/28 
f 23/14/31 25/15/33 26/15/34 
f 26/15/34 24/14/32 23/14/31 
f 25/15/33 19/12/27 22/12/30 
f 22/12/30 26/15/34 25/15/33 
f 23/14/11 20/13/11 19/12/11 
f 19/12/11 25/15/11 23/14/11 
f 21/13/12 24/14/12 26/15/12 
f 26/15/12 22/12/12 21/13/12 
f 27/16/27 28/17/28 29/17/29 
f 29/17/29 30/16/30 27/16/27 
f 28/17/28 31/18/31 32/18/32 
f 32/18/32 29/17/29 28/17/28 
f 31/18/31 33/19/33 34/19/34 
f 34/19/34 32/18/32 31/18/31 
f 33/19/33 27/16/27 30/16/30 
f 30/16/30 34/19/34 33/19/33 
f 31/18/11 28/17/11 27/16/11 
f 27/16/11 33/19/11 31/18/11 
f 29/17/12 32/18/12 34/19/12 
f 34/19/12 30/16/12 29/17/12 
f 35/20/27 36/21/28 37/21/29 
f 37/21/29 38/20/35 35/20/27 
f 36/21/28 39/22/36 40/22/32 
f 40/22/32 37/21/29 36/21/28 
f 39/22/36 41/23/37 42/23/38 
f 42/23/38 40/22/32 39/22/36 
f 41/23/37 35/20/27 38/20/35 
f 38/20/35 42/23/38 41/23/37 
f 39/22/11 36/21/11 35/20/11 
f 35/20/11 41/23/11 39/22/11 
f 37/21/12 40/22/12 42/23/12 
f 42/23/12 38/20/12 37/21/12 
f 43/24/27 44/25/28 45/25/29 
f 45/25/29 46/24/30 43/24/27 
f 44/25/28 47/26/31 48/26/32 
f 48/26/32 45/25/29 44/25/28 
f 47/26/31 49/27/33 50/27/34 
f 50/27/34 48/26/32 47/26/31 
f 49/27/33 43/24/27 46/24/30 
f 46/24/30 50/27/34 49/27/33 
f 47/26/11 44/25/11 43/24/11 
f 43/24/11 49/27/11 47/26/11 
f 45/25/12 48/26/12 50/27/12 
f 50/27/12 46/24/12 45/25/12 
f 51/28/39 52/29/40 53/14/41 
f 53/14/41 54/30/42 51/28/39 
f 52/29/40 55/28/43 56/30/44 
f 56/30/44 53/14/41 52/29/40 
f 55/28/43 57/31/45 58/32/46 
f 58/32/46 56/30/44 55/28/43 
f 57/31/45 51/28/39 54/30/42 
f 54/30/42 58/32/46 57/31/45 
f 55/28/47 52/29/48 51/28/47 
f 51/28/47 57/31/49 55/28/47 
f 53/14/50 56/30/50 58/32/50 
f 58/32/50 54/30/50 53/14/50 
f 59/33/12 60/34/12 61/35/12 
f 61/35/12 62/36/12 59/33/12 
f 63/33/11 64/36/11 65/35/11 
f 65/35/11 66/34/11 63/33/11 
f 59/33/51 62/36/51 64/36/51 
f 64/36/51 63/33/51 59/33/51 
f 62/36/52 61/35/52 65/35/52 
f 65/35/52 64/36/52 62/36/52 
f 61/35/53 60/34/53 66/34/53 
f 66/34/53 65/35/53 61/35/53 
f 60/34/54 59/33/54 63/33/54 
f 63/33/54 66/34/54 60/34/54 
f 67/37/12 68/38/12 69/39/12 
f 69/39/12 70/40/12 67/37/12 
f 71/37/11 72/40/11 73/39/11 
f 73/39/11 74/38/11 71/37/11 
f 67/37/52 70/40/52 72/40/52 
f 72/40/52 71/37/52 67/37/52 
f 70/40/53 69/39/53 73/39/53 
f 73/39/53 72/40/53 70/40/53 
f 69/39/54 68/38/54 74/38/54 
f 74/38/54 73/39/54 69/39/54 
f 68/38/51 67/37/51 71/37/51 
f 71/37/51 74/38/51 68/38/51 
f 75/41/12 76/42/12 77/43/12 
f 77/43/12 78/44/12 75/41/12 
f 79/41/11 80/44/11 81/43/11 
f 81/43/11 82/42/11 79/41/11 
f 75/41/51 78/44/51 80/44/51 
f 80/44/51 79/41/51 75/41/51 
f 78/44/52 77/43/52 81/43/52 
f 81/43/52 80/44/52 78/44/52 
f 77/43/53 76/42/53 82/42/53 
f 82/42/53 81/43/53 77/43/53 
f 76/42/54 75/41/54 79/41/54 
f 79/41/54 82/42/54 76/42/54 
f 83/45/12 84/46/12 85/47/12 
f 85/47/12 86/48/12 83/45/12 
f 87/45/11 88/48/11 89/47/11 
f 89/47/11 90/46/11 87/45/11 
f 83/45/52 86/48/52 88/48/52 
f 88/48/52 87/45/52 83/45/52 
f 86/48/53 85/47/53 89/47/53 
f 89/47/53 88/48/53 86/48/53 
f 85/47/54 84/46/54 90/46/54 
f 90/46/54 89/47/54 85/47/54 
f 84/46/51 83/45/51 87/45/51 
f 87/45/51 90/46/51 84/46/51 
f 91/49/53 92/50/53 93/50/53 
f 93/50/53 94/49/53 91/49/53 
f 95/51/55 91/49/55 94/49/55 
f 94/49/55 96/51/55 95/51/55 
f 97/52/53 95/53/53 96/53/53 
f 96/53/53 98/52/53 97/52/53 
f 99/54/54 97/52/54 98/52/54 
f 98/52/54 100/54/54 99/54/54 
f 101/55/51 99/54/51 100/54/51 
f 100/54/51 102/55/51 101/55/51 
f 92/50/56 101/56/56 102/56/56 
f 102/56/56 93/50/56 92/50/56 
f 100/54/57 98/52/58 96/53/58 
f 100/54/57 96/53/58 94/57/59 
f 100/54/57 94/57/59 93/58/59 
f 100/54/57 93/58/59 102/55/58 
f 99/54/60 101/55/61 92/58/60 
f 99/54/60 92/58/60 91/57/60 
f 99/54/60 91/57/60 95/53/61 
f 99/54/60 95/53/61 97/52/61 
f 103/59/12 104/60/12 105/61/12 
f 105/61/12 106/62/12 103/59/12 
f 107/59/11 108/62/11 109/61/11 
f 109/61/11 110/60/11 107/59/11 
f 110/60/62 109/61/62 105/61/62 
f 105/61/62 104/60/62 110/60/62 
f 107/59/63 110/60/63 104/60/63 
f 104/60/63 103/59/63 107/59/63 
f 108/62/64 107/59/64 103/59/64 
f 103/59/64 106/62/64 108/62/64 
f 109/61/65 108/62/65 106/62/65 
f 106/62/65 105/61/65 109/61/65 
f 111/63/12 112/64/12 113/65/12 
f 113/65/12 114/66/12 111/63/12 
f 115/63/11 116/66/11 117/65/11 
f 117/65/11 118/64/11 115/63/11 
f 118/64/52 117/65/52 113/65/52 
f 113/65/52 112/64/52 118/64/52 
f 115/63/53 118/64/53 112/64/53 
f 112/64/53 111/63/53 115/63/53 
f 116/66/54 115/63/54 111/63/54 
f 111/63/54 114/66/54 116/66/54 
f 117/65/51 116/66/51 114/66/51 
f 114/66/51 113/65/51 117/65/51 
f 119/67/52 120/68/52 121/68/52 
f 121/68/52 122/67/52 119/67/52 
f 123/69/66 119/67/66 122/67/66 
f 122/67/66 124/69/66 123/69/66 
f 125/70/52 123/71/52 124/71/52 
f 124/71/52 126/70/52 125/70/52 
f 127/72/53 125/70/53 126/70/53 
f 126/70/53 128/72/53 127/72/53 
f 129/73/54 127/72/54 128/72/54 
f 128/72/54 130/73/54 129/73/54 
f 120/68/67 129/74/67 130/74/67 
f 130/74/67 121/68/67 120/68/67 
f 128/72/68 126/70/69 124/71/69 
f 128/72/68 124/71/69 122/75/70 
f 128/72/68 122/75/70 121/76/70 
f 128/72/68 121/76/70 130/73/69 
f 127/72/71 129/73/72 120/76/73 
f 127/72/71 120/76/73 119/75/73 
f 127/72/71 119/75/73 123/71/74 
f 127/72/71 123/71/74 125/70/71 
f 131/77/12 132/78/12 133/79/12 
f 133/79/12 134/80/12 131/77/12 
f 135/77/11 136/80/11 137/79/11 
f 137/79/11 138/78/11 135/77/11 
f 138/78/65 137/79/65 133/79/65 
f 133/79/65 132/78/65 138/78/65 
f 135/77/62 138/78/62 132/78/62 
f 132/78/62 131/77/62 135/77/62 
f 136/80/63 135/77/63 131/77/63 
f 131/77/63 134/80/63 136/80/63 
f 137/79/75 136/80/75 134/80/75 
f 134/80/75 133/79/75 137/79/75 
f 139/81/12 140/82/12 141/83/12 
f 141/83/12 142/84/12 139/81/12 
f 143/81/11 144/84/11 145/83/11 
f 145/83/11 146/82/11 143/81/11 
f 146/82/51 145/83/51 141/83/51 
f 141/83/51 140/82/51 146/82/51 
f 143/81/52 146/82/52 140/82/52 
f 140/82/52 139/81/52 143/81/52 
f 144/84/53 143/81/53 139/81/53 
f 139/81/53 142/84/53 144/84/53 
f 145/83/54 144/84/54 142/84/54 
f 142/84/54 141/83/54 145/83/54 
f 147/85/51 148/86/51 149/86/51 
f 149/86/51 150/85/51 147/85/51 
f 151/87/76 147/85/76 150/85/76 
f 150/85/76 152/87/76 151/87/76 
f 153/88/51 151/89/51 152/89/51 
f 152/89/51 154/88/51 153/88/51 
f 155/90/52 153/88/52 154/88/52 
f 154/88/52 156/90/52 155/90/52 
f 157/91/53 155/90/53 156/90/53 
f 156/90/53 158/91/53 157/91/53 
f 148/86/77 157/92/77 158/92/77 
f 158/92/77 149/86/77 148/86/77 
f 156/90/78 154/88/78 152/89/79 
f 156/90/78 152/89/79 150/93/80 
f 156/90/78 150/93/80 149/94/80 
f 156/90/78 149/94/80 158/91/79 
f 155/90/81 157/91/81 148/94/82 
f 155/90/81 148/94/82 147/93/82 
f 155/90/81 147/93/82 151/89/83 
f 155/90/81 151/89/83 153/88/81 
f 159/95/12 160/96/12 161/97/12 
f 161/97/12 162/98/12 159/95/12 
f 163/95/11 164/98/11 165/97/11 
f 165/97/11 166/96/11 163/95/11 
f 166/96/64 165/97/64 161/97/64 
f 161/97/64 160/96/64 166/96/64 
f 163/95/65 166/96/65 160/96/65 
f 160/96/65 159/95/65 163/95/65 
f 164/98/62 163/95/62 159/95/62 
f 159/95/62 162/98/62 164/98/62 
f 165/97/63 164/98/63 162/98/63 
f 162/98/63 161/97/63 165/97/63 
f 167/99/12 168/100/12 169/101/12 
f 169/101/12 170/102/12 167/99/12 
f 171/99/11 172/102/11 173/101/11 
f 173/101/11 174/100/11 171/99/11 
f 174/100/54 173/101/54 169/101/54 
f 169/101/54 168/100/54 174/100/54 
f 171/99/51 174/100/51 168/100/51 
f 168/100/51 167/99/51 171/99/51 
f 172/102/52 171/99/52 167/99/52 
f 167/99/52 170/102/52 172/102/52 
f 173/101/53 172/102/53 170/102/53 
f 170/102/53 169/101/53 173/101/53 
f 175/103/54 176/104/54 177/104/54 
f 177/104/54 178/103/54 175/103/54 
f 179/105/84 175/103/84 178/103/84 
f 178/103/84 180/105/84 179/105/84 
f 181/106/54 179/107/54 180/107/54 
f 180/107/54 182/106/54 181/106/54 
f 183/108/51 181/106/51 182/106/51 
f 182/106/51 184/108/51 183/108/51 
f 185/109/52 183/108/52 184/108/52 
f 184/108/52 186/109/52 185/109/52 
f 176/104/85 185/110/85 186/110/85 
f 186/110/85 177/104/85 176/104/85 
f 184/108/86 182/106/86 180/107/87 
f 184/108/86 180/107/87 178/111/88 
f 184/108/86 178/111/88 177/112/88 
f 184/108/86 177/112/88 186/109/87 
f 183/108/89 185/109/90 176/112/91 
f 183/108/89 176/112/91 175/111/91 
f 183/108/89 175/111/91 179/107/90 
f 183/108/89 179/107/90 181/106/90 
f 187/113/12 188/114/12 189/115/12 
f 189/115/12 190/116/12 187/113/12 
f 191/113/11 192/116/11 193/115/11 
f 193/115/11 194/114/11 191/113/11 
f 194/114/63 193/115/63 189/115/63 
f 189/115/63 188/114/63 194/114/63 
f 191/113/64 194/114/64 188/114/64 
f 188/114/64 187/113/64 191/113/64 
f 192/116/92 191/113/92 187/113/92 
f 187/113/92 190/116/92 192/116/92 
f 193/115/62 192/116/62 190/116/62 
f 190/116/62 189/115/62 193/115/62 
f 195/117/12 196/118/12 197/119/12 
f 197/119/12 198/120/12 195/117/12 
f 199/117/11 200/120/11 201/119/11 
f 201/119/11 202/118/11 199/117/11 
f 202/118/53 201/119/53 197/119/53 
f 197/119/53 196/118/53 202/118/53 
f 199/117/54 202/118/54 196/118/54 
f 196/118/54 195/117/54 199/117/54 
f 200/120/51 199/117/51 195/117/51 
f 195/117/51 198/120/51 200/120/51 
f 201/119/52 200/120/52 198/120/52 
f 198/120/52 197/119/52 201/119/52 
# 312 faces

